<?xml version="1.0" encoding="utf-8"?>
<!-- Generator: Adobe Illustrator 27.6.1, SVG Export Plug-In . SVG Version: 6.00 Build 0)  -->
<svg version="1.1" id="Layer_1" xmlns="http://www.w3.org/2000/svg" xmlns:xlink="http://www.w3.org/1999/xlink" x="0px" y="0px"
	 viewBox="0 0 448.3 136.7" style="enable-background:new 0 0 448.3 136.7;" xml:space="preserve">
<g>
	<path d="M414.3,26.2c-2.1-1.2-3.8-2.8-4.9-4.9c-1.2-2.1-1.8-4.6-1.8-7.3c0-2.7,0.6-5.2,1.8-7.3c1.2-2.1,2.8-3.8,4.9-4.9
		s4.5-1.8,7.3-1.8c2.7,0,5.2,0.6,7.3,1.8c2.1,1.2,3.8,2.8,4.9,4.9c1.2,2.1,1.8,4.5,1.8,7.3c0,2.8-0.6,5.2-1.8,7.3
		c-1.2,2.1-2.8,3.8-4.9,4.9c-2.1,1.2-4.5,1.7-7.3,1.7C418.8,28,416.4,27.4,414.3,26.2z M430.3,22.8c2.2-2.2,3.2-5.1,3.2-8.8
		c0-3.7-1.1-6.7-3.2-8.9c-2.2-2.2-5.1-3.3-8.7-3.3c-3.6,0-6.5,1.1-8.7,3.3c-2.2,2.2-3.2,5.1-3.2,8.9c0,3.7,1.1,6.6,3.2,8.8
		c2.2,2.2,5.1,3.3,8.7,3.3C425.2,26,428.1,24.9,430.3,22.8z M415,5.5h7.6c2.1,0,3.7,0.4,4.7,1.3c1,0.9,1.5,2.2,1.5,3.9
		c0,2.4-1.2,3.8-3.5,4.3c0.7,0.2,1.2,0.6,1.6,1.2c0.3,0.6,0.6,1.6,1,2.9l0.8,3.1h-4l-1-3.7c-0.2-0.9-0.5-1.4-0.7-1.8
		c-0.3-0.3-0.8-0.5-1.5-0.5h-2.6v6H415V5.5z M422.3,13.3c0.9,0,1.6-0.2,2.1-0.5c0.4-0.4,0.6-1,0.6-1.8c0-0.9-0.2-1.5-0.6-1.8
		c-0.4-0.4-1.1-0.5-2.1-0.5h-3.4v4.7H422.3z"/>
</g>
<g>
	<path d="M72.3,66.8l17.3,41.1l7.8-17.7c0.7-1.7,1.2-3.5,1.5-5.2c0.3-1.7,0.3-3.5,0-5.3c-0.3-2-0.8-3.9-1.6-5.7
		c-0.8-1.8-1.8-3.5-3.1-5.1l-1.6-2.1h9.6c0.5,1.2,0.9,2.4,1.2,3.6c0.3,1.2,0.5,2.4,0.5,3.7c0.1,2.9-0.3,5.6-1.4,8.3
		c-0.1,0.3-0.2,0.6-0.3,0.8c-0.1,0.2-0.2,0.4-0.3,0.7l-3.5,7.3l-8.1,18.2l0.5,1.1h-6.9L65.7,66.8H72.3z"/>
	<path d="M109.7,88.3c0-3.6,0.7-6.8,2-9.6c1.3-2.8,3.1-5.2,5.3-7.2c2.3-2,4.9-3.5,7.8-4.6c3-1.1,6.1-1.6,9.5-1.6
		c3.4,0,6.6,0.6,9.6,1.6c3,1.1,5.6,2.6,7.8,4.6c2.2,2,4,4.4,5.2,7.2c1.3,2.8,1.9,6,1.9,9.5c0,3.5-0.7,6.7-2,9.5
		c-1.3,2.8-3.1,5.2-5.3,7.2c-2.2,2-4.8,3.5-7.8,4.6c-3,1.1-6.1,1.6-9.5,1.6c-3.4,0-6.6-0.6-9.6-1.6c-3-1.1-5.6-2.6-7.9-4.6
		c-2.2-2-4-4.4-5.3-7.2C110.3,94.9,109.7,91.8,109.7,88.3z M136.9,109.6c2.6,0,4.9-0.5,6.9-1.4c2-1,3.6-2.3,4.9-3.9
		c1.3-1.7,2.3-3.6,3-5.7c0.7-2.2,1-4.5,1-6.9c0-1.9-0.2-3.9-0.7-5.9c-0.5-2-1.1-3.9-2-5.7c-0.8-1.8-1.9-3.6-3.1-5.2
		c-1.2-1.6-2.6-3-4.2-4.2c-1.6-1.2-3.3-2.1-5.1-2.8c-1.9-0.7-3.8-1-6-1c-2.6,0-4.8,0.5-6.8,1.4c-2,1-3.6,2.2-4.9,3.9
		c-1.3,1.6-2.3,3.5-3,5.6c-0.7,2.2-1,4.4-1,6.9c0,2.9,0.5,5.9,1.5,8.8c1,3,2.4,5.6,4.2,8c1.8,2.4,4,4.3,6.6,5.8
		C130.8,108.9,133.7,109.6,136.9,109.6z"/>
	<path d="M166.3,110.4V66.7h6v42.5h10.2c0.8,0,1.9-0.1,3.2-0.4c1.3-0.3,2.7-0.6,4.2-1c1.4-0.4,2.8-0.8,4-1.3
		c1.3-0.5,2.2-0.9,2.9-1.2l-1.1,5.1H166.3z"/>
	<path d="M201.5,79.8c0.9-2.2,2-4.1,3.5-5.7c1.4-1.6,3.1-3,5-4.2c1.9-1.2,3.9-2.1,6-2.7c2.2-0.6,4.3-1,6.6-1.2
		c2.9-0.2,5.8,0,8.7,0.6c0.6,0.1,1.2,0.2,1.9,0.4c0.7,0.2,1.3,0.4,2,0.6c0.7,0.2,1.3,0.5,2,0.7c0.6,0.3,1.2,0.6,1.7,0.9l0.2,0.1
		c0.3,0.2,0.6,0.4,0.8,0.6c0.2,0.2,0.5,0.4,0.7,0.6l-3.8,5.1c-1.7-2.3-3.9-4.2-6.6-5.7c-2.6-1.5-5.5-2.2-8.4-2.2
		c-3.1,0-5.8,0.8-8.1,2.5c-2.3,1.6-4,3.9-5.2,6.7c-1.4,3.3-1.9,7.1-1.5,11.3c0.2,2.7,0.9,5.2,1.9,7.4c1,2.3,2.4,4.3,4.1,5.9
		c1.7,1.7,3.7,3,6.1,3.9c2.3,0.9,4.8,1.4,7.6,1.5c0.7,0,1.6-0.1,2.4-0.2c0.9-0.1,1.8-0.3,2.7-0.5c0.9-0.2,1.7-0.5,2.6-0.9
		c0.8-0.4,1.5-0.8,2.1-1.3c2.2-1.8,3.6-3.3,4.2-4.5l0.4-0.9l0.6,0.2l-0.1,0.1V99c-0.2,0.6-0.4,1.2-0.7,1.8c-0.3,0.6-0.7,1.3-1.1,1.9
		c-0.4,0.6-0.9,1.2-1.3,1.8c-0.5,0.6-0.9,1.1-1.2,1.5c-1.9,1.9-4,3.2-6.5,4c-2.4,0.8-4.9,1.2-7.4,1.2c-3.2,0-6.2-0.6-9-1.6
		c-2.8-1.1-5.2-2.6-7.2-4.5c-2-1.9-3.7-4.2-4.9-6.9c-1.2-2.7-1.9-5.6-2-8.8C199.8,85.9,200.4,82.7,201.5,79.8z"/>
	<path d="M248.4,94.7c0.1-0.3,0.2-0.5,0.3-0.8c0.1-0.2,0.2-0.4,0.3-0.7l3.4-7.3l6.8-15.1l-1.7-4.1h6.7l18.4,43.6l-6.8-0.1l-15.9-38
		l-2,4.5L253.5,87c-1.5,3.4-2,6.8-1.6,10.5c0.6,4.1,2.2,7.7,4.8,10.8l1.6,2.1h-9.6c-1-2.4-1.6-4.8-1.7-7.4
		C246.9,100.3,247.4,97.5,248.4,94.7z"/>
	<path d="M296.7,66.7c2.4,2.8,4.6,5.9,6.5,9.4c1.9,3.5,3.7,7,5.5,10.6c1.1,2.3,2.3,4.5,3.4,6.8c1.2,2.2,2.4,4.4,3.7,6.4
		c1.3,2,2.6,3.8,4.1,5.5c1.4,1.7,3,3.1,4.7,4.2V66.7h1.2v43.6l0.1,0.1H316c-1.3-1.4-2.6-3-3.8-4.7c-1.2-1.7-2.3-3.4-3.4-5.2
		c-1.1-1.8-2.1-3.6-3-5.5c-1-1.9-1.9-3.8-2.9-5.7c-1.7-3.4-3.4-6.6-5.1-9.9c-1.8-3.2-3.7-6.1-5.8-8.6v39.5h-1.2V69.6
		c-0.5-0.5-1.1-1-1.6-1.5c-0.5-0.5-1.1-0.9-1.7-1.4H296.7z"/>
	<path d="M333.3,88.3c0-3.6,0.7-6.8,2-9.6c1.3-2.8,3.1-5.2,5.3-7.2c2.3-2,4.9-3.5,7.8-4.6c3-1.1,6.1-1.6,9.5-1.6
		c3.4,0,6.6,0.6,9.6,1.6c3,1.1,5.6,2.6,7.8,4.6c2.2,2,4,4.4,5.2,7.2c1.3,2.8,1.9,6,1.9,9.5c0,3.5-0.7,6.7-2,9.5
		c-1.3,2.8-3.1,5.2-5.3,7.2c-2.2,2-4.8,3.5-7.8,4.6c-3,1.1-6.1,1.6-9.5,1.6c-3.4,0-6.6-0.6-9.6-1.6c-3-1.1-5.6-2.6-7.9-4.6
		c-2.2-2-4-4.4-5.3-7.2C333.9,94.9,333.3,91.8,333.3,88.3z M360.5,109.6c2.6,0,4.9-0.5,6.9-1.4c2-1,3.6-2.3,4.9-3.9
		c1.3-1.7,2.3-3.6,3-5.7c0.7-2.2,1-4.5,1-6.9c0-1.9-0.2-3.9-0.7-5.9c-0.5-2-1.1-3.9-2-5.7c-0.8-1.8-1.9-3.6-3.1-5.2
		c-1.2-1.6-2.6-3-4.2-4.2c-1.6-1.2-3.3-2.1-5.1-2.8c-1.9-0.7-3.8-1-6-1c-2.6,0-4.8,0.5-6.8,1.4c-2,1-3.6,2.2-4.9,3.9
		c-1.3,1.6-2.3,3.5-3,5.6c-0.7,2.2-1,4.4-1,6.9c0,2.9,0.5,5.9,1.5,8.8c1,3,2.4,5.6,4.2,8c1.8,2.4,4,4.3,6.6,5.8
		C354.4,108.9,357.3,109.6,360.5,109.6z"/>
</g>
<g>
	<path d="M97.9,131.9v1.9H90v-10.2h7.7v1.9h-5.4v2.2h4.7v1.8h-4.7v2.4H97.9z"/>
	<path d="M112,133.8l0-6.1l-3,5h-1.1l-3-4.9v6h-2.2v-10.2h2l3.8,6.3l3.8-6.3h1.9l0,10.2H112z"/>
	<path d="M128.4,127.3c0,2.3-1.7,3.7-4.4,3.7h-2.1v2.8h-2.4v-10.2h4.4C126.7,123.6,128.4,125,128.4,127.3z M126,127.3
		c0-1.1-0.7-1.8-2.2-1.8h-1.9v3.5h1.9C125.2,129,126,128.4,126,127.3z"/>
	<path d="M132.5,128.7c0-3,2.4-5.3,5.6-5.3c3.2,0,5.6,2.2,5.6,5.3c0,3-2.4,5.3-5.6,5.3C134.8,133.9,132.5,131.7,132.5,128.7z
		 M141.2,128.7c0-1.9-1.4-3.3-3.2-3.3c-1.8,0-3.2,1.3-3.2,3.3c0,1.9,1.4,3.3,3.2,3.3C139.9,131.9,141.2,130.6,141.2,128.7z"/>
	<path d="M163.4,123.6l-3.3,10.2h-2.5l-2.2-6.9l-2.3,6.9h-2.5l-3.3-10.2h2.4l2.3,7.2l2.4-7.2h2.2l2.3,7.2l2.4-7.2H163.4z"/>
	<path d="M175.5,131.9v1.9h-7.9v-10.2h7.7v1.9H170v2.2h4.7v1.8H170v2.4H175.5z"/>
	<path d="M186.8,133.8l-2-2.8h-0.1h-2.1v2.8h-2.4v-10.2h4.4c2.7,0,4.4,1.4,4.4,3.7c0,1.5-0.8,2.7-2.1,3.2l2.3,3.3H186.8z
		 M184.6,125.5h-1.9v3.6h1.9c1.4,0,2.2-0.7,2.2-1.8C186.8,126.1,186,125.5,184.6,125.5z"/>
	<path d="M193.9,123.6h2.4v10.2h-2.4V123.6z"/>
	<path d="M211,123.6v10.2H209l-5.1-6.2v6.2h-2.3v-10.2h2l5.1,6.2v-6.2H211z"/>
	<path d="M223.2,128.5h2.2v4.1c-1.1,0.8-2.7,1.3-4.1,1.3c-3.2,0-5.6-2.2-5.6-5.3c0-3.1,2.4-5.3,5.6-5.3c1.8,0,3.3,0.6,4.3,1.8
		l-1.5,1.4c-0.7-0.8-1.6-1.2-2.6-1.2c-2,0-3.3,1.3-3.3,3.3c0,1.9,1.4,3.3,3.3,3.3c0.6,0,1.2-0.1,1.8-0.4V128.5z"/>
	<path d="M237.5,123.6h2.4v10.2h-2.4V123.6z"/>
	<path d="M254.5,123.6v10.2h-1.9l-5.1-6.2v6.2h-2.3v-10.2h2l5.1,6.2v-6.2H254.5z"/>
	<path d="M269.2,123.6v10.2h-1.9l-5.1-6.2v6.2h-2.3v-10.2h2l5.1,6.2v-6.2H269.2z"/>
	<path d="M273.9,128.7c0-3,2.4-5.3,5.6-5.3c3.2,0,5.6,2.2,5.6,5.3c0,3-2.4,5.3-5.6,5.3C276.2,133.9,273.9,131.7,273.9,128.7z
		 M282.7,128.7c0-1.9-1.4-3.3-3.2-3.3c-1.8,0-3.2,1.3-3.2,3.3c0,1.9,1.4,3.3,3.2,3.3C281.3,131.9,282.7,130.6,282.7,128.7z"/>
	<path d="M299.2,123.6l-4.4,10.2h-2.3l-4.4-10.2h2.5l3.1,7.3l3.1-7.3H299.2z"/>
	<path d="M309.3,131.6h-4.7l-0.9,2.2h-2.4l4.5-10.2h2.3l4.6,10.2h-2.5L309.3,131.6z M308.6,129.8l-1.6-3.9l-1.6,3.9H308.6z"/>
	<path d="M318.3,125.5H315v-1.9h8.9v1.9h-3.3v8.3h-2.4V125.5z"/>
	<path d="M328.1,123.6h2.4v10.2h-2.4V123.6z"/>
	<path d="M335.2,128.7c0-3,2.4-5.3,5.6-5.3c3.2,0,5.6,2.2,5.6,5.3c0,3-2.4,5.3-5.6,5.3C337.5,133.9,335.2,131.7,335.2,128.7z
		 M343.9,128.7c0-1.9-1.4-3.3-3.2-3.3c-1.8,0-3.2,1.3-3.2,3.3c0,1.9,1.4,3.3,3.2,3.3C342.6,131.9,343.9,130.6,343.9,128.7z"/>
	<path d="M360.4,123.6v10.2h-1.9l-5.1-6.2v6.2H351v-10.2h2l5.1,6.2v-6.2H360.4z"/>
</g>
</svg>
