<?xml version="1.0" encoding="utf-8"?>
<!-- Generator: Adobe Illustrator 27.6.1, SVG Export Plug-In . SVG Version: 6.00 Build 0)  -->
<svg version="1.1" id="Layer_1" xmlns="http://www.w3.org/2000/svg" xmlns:xlink="http://www.w3.org/1999/xlink" x="0px" y="0px"
	 viewBox="0 0 271.3 271.3" style="enable-background:new 0 0 271.3 271.3;" xml:space="preserve">
<g>
	<path style="opacity:0.2;" d="M243.9,149.9c-15.6-1.5-54-72-75.6-67.9c-6.6,1.3-16.1,6.8-32.6,6.8c-16.6,0-26-5.5-32.6-6.8
		c-21.6-4.1-60,66.4-75.6,67.9c-17.3,1.7-27.2-14.1-27.2-14.1s12.1,27.6,28.8,25.6c23.5-2.8,52.2-56.1,106.6-56.1
		s83.1,53.3,106.6,56.1c16.7,2,28.8-25.6,28.8-25.6S261.2,151.6,243.9,149.9z"/>
	<path style="opacity:0.36;" d="M242.3,161.5c-23.5-2.8-52.2-56.1-106.6-56.1S52.5,158.7,29,161.5c-16.7,2-28.8-25.6-28.8-25.6
		s14.8,41.3,34,37.9c33.1-5.8,43.9-36.1,101.5-36.6c57.6,0.5,68.4,30.7,101.5,36.6c19.2,3.4,34-37.9,34-37.9S259,163.5,242.3,161.5z
		"/>
	<path style="opacity:0.52;" d="M237.1,173.8c-33.1-5.8-43.9-36.1-101.5-36.6c-57.6,0.5-68.4,30.7-101.5,36.6
		c-19.2,3.4-34-37.9-34-37.9s12,63.4,49.7,50.3c41.6-14.4,59.9-15.8,85.7-16.4c25.8,0.5,44.2,2,85.7,16.4
		c37.7,13.1,49.7-50.3,49.7-50.3S256.3,177.1,237.1,173.8z"/>
	<path style="opacity:0.68;" d="M221.4,186.2c-41.6-14.4-59.9-15.8-85.7-16.4c-25.8,0.5-44.2,2-85.7,16.4
		c-37.7,13.1-49.7-50.3-49.7-50.3s8.1,67.6,58.7,65.2c26.1-1.2,34.4-9.8,76.7-10.1c42.3,0.3,50.6,8.9,76.7,10.1
		c50.6,2.4,58.7-65.2,58.7-65.2S259.1,199.2,221.4,186.2z"/>
	<path style="opacity:0.84;" d="M212.4,201c-26.1-1.2-34.4-9.8-76.7-10.1c-42.3,0.3-50.6,8.9-76.7,10.1
		c-50.6,2.4-58.7-65.2-58.7-65.2s5.1,75,71.9,76.1c46.7,0.7,63.5,0.9,63.5,0.9s16.8-0.2,63.5-0.9c66.8-1,71.9-76.1,71.9-76.1
		S263,203.4,212.4,201z"/>
	<path d="M199.2,211.9c-46.7,0.7-63.5,0.9-63.5,0.9s-16.8-0.2-63.5-0.9c-66.8-1-71.9-76.1-71.9-76.1c0,74.8,60.6,135.5,135.5,135.5
		s135.5-60.6,135.5-135.5C271.1,135.8,266,210.9,199.2,211.9z"/>
	<linearGradient id="SVGID_1_" gradientUnits="userSpaceOnUse" x1="135.6501" y1="88.8303" x2="135.6501" y2="76.187">
		<stop  offset="0" style="stop-color:#231F20;stop-opacity:0.6"/>
		<stop  offset="0.4942" style="stop-color:#231F20;stop-opacity:0.4023"/>
		<stop  offset="0.4977" style="stop-color:#231F20;stop-opacity:0.4009"/>
		<stop  offset="0.552" style="stop-color:#231F20;stop-opacity:0.3792"/>
		<stop  offset="1" style="stop-color:#231F20;stop-opacity:0.2"/>
	</linearGradient>
	<path style="fill:url(#SVGID_1_);" d="M135.7,76.2c-12-0.2-25.6,1.4-39.1,6.5c2.3-0.8,4.4-1.1,6.5-0.7c6.6,1.2,16.1,6.8,32.6,6.8
		s26-5.5,32.6-6.8c2-0.4,4.2-0.1,6.5,0.7C161.3,77.6,147.7,76,135.7,76.2z"/>
</g>
</svg>
